<?xml version="1.0" encoding="UTF-8" standalone="no"?>
<!-- Created with Inkscape (http://www.inkscape.org/) -->

<svg
   xmlns:dc="http://purl.org/dc/elements/1.1/"
   xmlns:cc="http://creativecommons.org/ns#"
   xmlns:rdf="http://www.w3.org/1999/02/22-rdf-syntax-ns#"
   xmlns:svg="http://www.w3.org/2000/svg"
   xmlns="http://www.w3.org/2000/svg"
   xmlns:sodipodi="http://sodipodi.sourceforge.net/DTD/sodipodi-0.dtd"
   xmlns:inkscape="http://www.inkscape.org/namespaces/inkscape"
   width="218.32301mm"
   height="37.684448mm"
   viewBox="0 0 218.32301 37.684449"
   version="1.1"
   id="svg4553"
   inkscape:version="0.92.3 (2405546, 2018-03-11)"
   sodipodi:docname="logo_eds.svg">
  <defs
     id="defs4547">
    <clipPath
       clipPathUnits="userSpaceOnUse"
       id="clipPath5100">
      <path
         style="fill:none;stroke:#000000;stroke-width:0.93750006px;stroke-linecap:butt;stroke-linejoin:miter;stroke-opacity:1"
         d="m -1938.7451,1060.913 -234.375,597.3215 h 1209.37505 l 207.58923,-565.1786 z"
         id="path5102"
         inkscape:connector-curvature="0" />
    </clipPath>
    <clipPath
       clipPathUnits="userSpaceOnUse"
       id="clipPath5125">
      <path
         style="fill:none;stroke:#000000;stroke-width:0.93750006px;stroke-linecap:butt;stroke-linejoin:miter;stroke-opacity:1"
         d="m -680.59726,1064.4098 -234.375,597.3215 H 294.40278 L 501.992,1096.5527 Z"
         id="path5127"
         inkscape:connector-curvature="0" />
    </clipPath>
    <clipPath
       clipPathUnits="userSpaceOnUse"
       id="clipPath5150">
      <path
         style="fill:none;stroke:#000000;stroke-width:0.10902486px;stroke-linecap:butt;stroke-linejoin:miter;stroke-opacity:1"
         d="m -739.23966,1671.4285 -27.25622,69.4645 h 140.64216 l 24.14118,-65.7265 z"
         id="path5152"
         inkscape:connector-curvature="0" />
    </clipPath>
  </defs>
  <sodipodi:namedview
     id="base"
     pagecolor="#ffffff"
     bordercolor="#666666"
     borderopacity="1.0"
     inkscape:pageopacity="0.0"
     inkscape:pageshadow="2"
     inkscape:zoom="1.4"
     inkscape:cx="399.37165"
     inkscape:cy="151.50889"
     inkscape:document-units="mm"
     inkscape:current-layer="layer1"
     showgrid="false"
     inkscape:window-width="1920"
     inkscape:window-height="986"
     inkscape:window-x="-11"
     inkscape:window-y="-11"
     inkscape:window-maximized="1"
     fit-margin-top="0"
     fit-margin-left="0"
     fit-margin-right="0"
     fit-margin-bottom="0" />
  <metadata
     id="metadata4550">
    <rdf:RDF>
      <cc:Work
         rdf:about="">
        <dc:format>image/svg+xml</dc:format>
        <dc:type
           rdf:resource="http://purl.org/dc/dcmitype/StillImage" />
        <dc:title></dc:title>
      </cc:Work>
    </rdf:RDF>
  </metadata>
  <g
     inkscape:label="Ebene 1"
     inkscape:groupmode="layer"
     id="layer1"
     transform="translate(5.6037701,-117.50894)">
    <path
       transform="matrix(0.05583967,0,0,0.05583967,255.4721,57.573121)"
       style="fill:#000000"
       d="m -2171.1506,1727.8196 3.3088,-9.386 h 48.5191 48.5192 v -1.875 -1.875 h -47.5 -47.5 v -1.1067 c 0,-0.6088 2.0601,-6.5552 4.5779,-13.2144 l 4.578,-12.1077 11.0221,-5.5356 11.022,-5.5356 h 56.7622 56.7621 l -3.3442,9.0625 -3.5227,8.9732 c -31.3026,0.2807 -59.2666,0.2486 -90.8379,0.3309 -0.9892,0.6085 -3.8427,2.268 -4.9362,2.8834 h 94.1667 l -0.069,0.9375 c -0.038,0.5156 -3.0273,9.0937 -6.6431,19.0625 l -6.5742,18.125 -65.8098,0.3235 -65.8098,0.3235 z m 150.8618,-15.1762 8.9548,-24.5402 10.5777,-5.397 10.5778,-5.397 48.2692,-0.063 48.2692,-0.063 6.4183,5.221 6.4183,5.221 v 1.3226 c 0,0.7275 -3.7969,11.8708 -8.4375,24.763 l -8.4375,23.4404 -65.7826,0.016 -65.7825,0.016 8.9548,-24.5402 z m 97.503,-3.1325 3.3073,-8.9226 -2.1062,-2.3274 -2.1063,-2.3273 h -24.2214 -24.2214 l -4.2001,1.7549 -4.2001,1.7549 -2.4754,6.6826 c -1.3614,3.6754 -2.8662,7.9482 -3.344,9.4951 l -0.8686,2.8125 h 30.5644 30.5644 z m 41.2286,19.8943 c 1.6004,-4.3157 4.7517,-13.0497 7.0028,-19.4091 l 4.093,-11.5625 h 63.0581 63.0582 l -0.643,1.5625 c -0.3536,0.8594 -1.6282,4.5156 -2.8325,8.125 l -2.1894,6.5625 h -45.7093 -45.7092 l -3.8618,10.9339 -3.8618,10.934 -17.6575,0.3465 -17.6575,0.3466 2.9099,-7.8466 z m 182.0037,7.1919 c 0,-0.3225 3.0938,-9.1089 6.875,-19.5253 3.7813,-10.4163 6.875,-19.4336 6.875,-20.0385 v -1.0997 h -22.3895 -22.3894 l 3.3269,-9.3689 3.327,-9.369 62.8125,-0.01 62.8125,-0.01 -0.021,0.9375 c -0.011,0.5156 -1.3543,4.5938 -2.9843,9.0625 l -2.9635,8.125 -22.9532,0.625 -22.9532,0.625 -7.3936,20.3125 -7.3936,20.3125 h -17.2939 c -9.5117,0 -17.2939,-0.2639 -17.2939,-0.5865 z m 103.9183,-4.6345 c -3.5301,-2.8716 -6.4183,-5.7513 -6.4183,-6.3994 0,-0.6482 3.7969,-11.7942 8.4375,-24.769 l 8.4375,-23.5905 17.1875,-0.01 17.1875,-0.01 v 1.0997 c 0,0.6048 -3.0937,9.6222 -6.875,20.0385 -3.7812,10.4164 -6.875,19.2098 -6.875,19.5411 0,0.3312 20.0202,0.4545 44.4893,0.2739 l 44.4893,-0.3282 7.1929,-20 7.1928,-20 17.674,-0.3467 17.6741,-0.3468 -3.5693,9.7218 c -1.9632,5.3469 -5.9832,16.3711 -8.9335,24.4982 l -5.3641,14.7765 -11.0227,5.536 -11.0228,5.536 h -61.7317 -61.7317 z m 165.5671,-6.9324 c 2.4212,-6.7219 5.5716,-15.456 7.0009,-19.4091 l 2.5987,-7.1875 47.645,-0.019 47.645,-0.019 -1.875,-1.2117 -1.875,-1.2117 -45.2475,-0.019 -45.2474,-0.019 1.3279,-3.8093 1.3279,-3.8092 11.0821,-5.5658 11.0821,-5.5657 h 47.8604 47.8603 l 6.2271,5.1248 c 3.4249,2.8186 6.3653,5.7717 6.5342,6.5625 0.169,0.7907 -3.5013,11.8439 -8.1561,24.5627 l -8.4633,23.125 -17.6139,0.3458 -17.6139,0.3458 3.5826,-10.1239 c 1.9704,-5.5682 3.5825,-10.6457 3.5825,-11.2834 v -1.1594 h -30.4138 -30.4138 l -3.7881,10.9375 -3.7882,10.9375 -17.6314,0.3466 -17.6314,0.3466 4.4021,-12.2216 z m 143.5109,4.375 c 1.6004,-4.3157 4.7517,-13.0497 7.0029,-19.4091 l 4.0929,-11.5625 47.6415,-0.019 47.6414,-0.019 -1.875,-1.2117 -1.875,-1.2117 -45.202,-0.019 -45.2019,-0.019 3.3269,-9.369 3.327,-9.3689 57.0192,-0.01 57.0193,-0.01 6.4182,5.221 c 3.5301,2.8716 6.4183,5.7685 6.4183,6.4377 0,0.6692 -2.0551,6.7572 -4.567,13.529 l -4.567,12.3126 h -48.2455 -48.2455 l -3.8618,10.934 -3.8618,10.9339 -17.6575,0.3466 -17.6575,0.3465 2.9099,-7.8465 z m 60.2493,-1.5966 -5.6917,-9.375 h 32.3794 32.3795 l 5.6917,9.375 5.6917,9.375 h -32.3795 -32.3794 z m 84.7592,1.5739 c 1.5958,-4.3031 4.7432,-13.027 6.9944,-19.3864 l 4.0929,-11.5625 h 63.0581 63.0582 l -0.643,1.5625 c -0.3536,0.8594 -1.6282,4.5156 -2.8325,8.125 l -2.1894,6.5625 h -46.0218 -46.0217 v 1.875 1.875 h 45 45 v 1.0978 c 0,0.6038 -1.3473,4.6819 -2.994,9.0625 l -2.994,7.9647 -63.2043,0.3239 -63.2042,0.3239 z m 242.52609,-0.011 c 1.6055,-4.2968 4.79225,-13.0156 7.08187,-19.375 l 4.16288,-11.5625 h 17.23712 17.23725 v 1.1012 c 0,0.6057 -1.40625,4.8372 -3.125,9.4035 -1.71875,4.5663 -3.125,8.5708 -3.125,8.8989 0,0.328 12.291,0.5964 27.3135,0.5964 h 27.3135 l 3.801,-1.325 3.80113,-1.3251 3.26037,-9.1841 c 1.79325,-5.0513 3.2605,-9.5175 3.2605,-9.925 v -0.7408 h -48.0145 -48.0145 l 3.327,-9.3689 3.327,-9.369 65.906,-0.01 65.90613,-0.01 -3.55675,9.6875 c -1.95613,5.3282 -5.9705,16.337 -8.92075,24.4641 l -5.36413,14.7765 -11.02275,5.536 -11.02275,5.5359 h -56.844 -56.844 l 2.91888,-7.8125 z m 144.97387,0.011 c 1.59575,-4.3031 4.74325,-13.027 6.99437,-19.3864 l 4.09301,-11.5625 h 63.05812 63.05813 l -0.64301,1.5625 c -0.35362,0.8594 -1.62824,4.5156 -2.83249,8.125 l -2.18938,6.5625 h -46.02175 -46.02175 v 1.875 1.875 h 45 45 v 1.0978 c 0,0.6038 -1.34725,4.6819 -2.994,9.0625 l -2.994,7.9647 -63.20425,0.3239 -63.20437,0.3239 z m 138.7415,0.023 c 1.6005,-4.3156 4.75175,-13.0497 7.00287,-19.409 l 4.093,-11.5625 h 63.05813 63.05813 l -0.64301,1.5625 c -0.35362,0.8593 -1.62824,4.5156 -2.83249,8.125 l -2.18938,6.5625 h -45.70925 -45.70925 l -3.86175,10.9339 -3.86187,10.9339 -17.65751,0.3466 -17.6575,0.3466 2.90988,-7.8466 z m 139.486,-1.8752 c 1.969,-5.3467 6.85663,-18.8584 10.86138,-30.026 l 7.28137,-20.3047 17.1875,-0.01 17.1875,-0.01 -0.0763,1.5625 c -0.0412,0.8594 -4.72475,14.2187 -10.40712,29.6875 l -10.3315,28.125 -17.64175,0.3463 -17.64175,0.3464 3.58,-9.7214 z m 46.764,1.8752 c 1.6005,-4.3156 4.75175,-13.0497 7.00287,-19.409 l 4.093,-11.5625 h 17.32888 17.329 l -0.0688,0.9375 c -0.0375,0.5156 -3.02663,9.0937 -6.64163,19.0625 l -6.57275,18.125 -17.69012,0.3465 -17.69012,0.3466 2.90987,-7.8466 z m 59.24463,-12.5115 -11.92813,-20.335 -17.53387,-0.3461 -17.53388,-0.3461 3.315,-9.3354 3.315,-9.3353 28.7975,-0.01 28.79738,-0.01 11.7745,19.9905 11.7745,19.9905 0.80462,-0.928 c 0.4425,-0.5104 3.84125,-9.5013 7.553,-19.9796 l 6.7485,-19.0516 17.1875,-0.011 17.1875,-0.011 -0.0762,1.5625 c -0.0412,0.8593 -4.72512,14.2187 -10.408,29.6875 l -10.33237,28.125 -28.75763,0.335 -28.7575,0.335 -11.928,-20.335 z m 84.51387,12.4889 c 1.59575,-4.3032 4.74325,-13.0271 6.99437,-19.3864 l 4.093,-11.5625 h 63.05813 63.05813 l -0.643,1.5625 c -0.35363,0.8593 -1.62825,4.5156 -2.83251,8.125 l -2.18937,6.5625 h -46.02175 -46.02175 v 1.875 1.875 h 45 45 v 1.0978 c 0,0.6038 -1.34725,4.6819 -2.994,9.0625 l -2.994,7.9647 -63.20425,0.3239 -63.20437,0.3239 z m 138.77613,-0.011 c 1.6055,-4.2969 4.79225,-13.0156 7.08187,-19.375 l 4.16288,-11.5625 h 17.23712 17.23725 v 1.1012 c 0,0.6056 -1.40625,4.8372 -3.125,9.4035 -1.71875,4.5663 -3.125,8.5708 -3.125,8.8988 0,0.3281 12.291004,0.5965 27.313504,0.5965 h 27.3135 l 3.801,-1.3251 3.80112,-1.3251 3.26038,-9.1841 c 1.79325,-5.0513 3.2605,-9.5175 3.2605,-9.9249 v -0.7408 h -48.0145 -48.014504 l 3.327,-9.3689 3.327,-9.369 65.906004,-0.01 65.9061298,-0.01 -3.55674997,9.6875 c -1.95613003,5.3281 -5.97050003,16.3369 -8.92075003,24.464 l -5.3641298,14.7766 -11.02275,5.5359 -11.02275,5.536 h -56.844 -56.844004 l 2.91888,-7.8125 z m 512.20142,-2.0912 c 1.969,-5.3467 5.92908,-19.2359 10.8613,-30.026 l 7.2814,-20.3047 17.1875,-0.01 17.1875,-0.01 -0.076,1.5625 c -0.041,0.8594 -5.72652,13.8867 -10.4072,29.6875 l -10.3315,28.125 -17.6417,0.3463 -17.6418,0.3464 3.58,-9.7214 z m 46.764,1.8752 c 1.6005,-4.3156 4.75165,-13.0496 7.0028,-19.409 l 4.093,-11.5625 h 17.3289 17.329 l -0.069,0.9375 c -0.038,0.5156 -3.0266,9.0937 -6.6416,19.0625 l -6.5727,18.125 -17.6901,0.3465 -17.6902,0.3466 z m 59.2446,-12.5115 -11.9281,-20.335 -17.5339,-0.3461 -17.5339,-0.3461 3.315,-9.3353 3.315,-9.3354 28.7975,-0.01 28.7974,-0.01 11.7745,19.9905 11.7745,19.9906 0.8046,-0.9281 c 0.4425,-0.5104 2.91408,-9.8774 7.553,-19.9796 l 6.7485,-19.0516 17.1875,-0.011 17.1875,-0.011 -0.076,1.5625 c -0.041,0.8594 -4.72517,14.2187 -10.408,29.6875 l -10.3324,28.125 -28.7576,0.335 -28.7575,0.335 -11.928,-20.335 z m 117.2879,7.4773 c -11.81544,-33.6921 -15.7788,-45.2969 -15.7788,-46.2025 v -0.985 h 18.0353 18.0351 l 2.3985,6.5625 c 1.31919,3.6094 4.27021,12.0653 6.5578,18.7908 l 4.1593,12.2283 4.4695,-4.175 c 2.4583,-2.2962 11.5836,-10.7675 20.2786,-18.8249 l 15.8093,-14.65 18.1255,0.3467 18.1255,0.3466 -31.9748,29.6875 -31.9747,29.6875 h -20.8865 -20.8864 z m 102.226,5.0115 c 1.5957,-4.3032 4.74315,-13.0271 6.9943,-19.3865 l 4.093,-11.5625 h 63.0581 63.0582 l -0.643,1.5625 c -0.3537,0.8594 -1.62832,4.5156 -2.8325,8.125 l -2.1894,6.5625 h -46.0217 -46.0218 v 1.875 1.875 h 45 45 v 1.0978 c 0,0.6038 -1.3472,4.682 -2.994,9.0625 l -2.994,7.9647 -63.2042,0.324 -63.2044,0.3239 z m 138.7415,0.023 c 1.6005,-4.3157 4.75165,-13.0497 7.0028,-19.4091 l 4.093,-11.5625 47.6414,-0.019 47.6415,-0.019 -1.875,-1.2117 -1.875,-1.2118 -45.202,-0.019 -45.202,-0.019 3.327,-9.3689 3.327,-9.3689 57.0193,-0.01 57.0192,-0.01 6.4183,5.221 c 3.53,2.8716 6.4182,5.7685 6.4182,6.4377 0,0.6691 -2.05513,6.7572 -4.567,13.529 l -4.567,12.3123 h -48.2455 -48.2455 l -3.8617,10.9339 -3.8619,10.9339 -17.6575,0.3466 -17.6575,0.3465 2.9099,-7.8465 z m 60.2492,-1.5966 -5.6916,-9.375 h 32.3793 32.3796 l 5.6917,9.375 5.6916,9.375 h -32.3793 -32.3796 z m 128.00449,8.7885 c 0,-0.3225 3.0938,-9.1089 6.875,-19.5252 3.7813,-10.4164 6.875,-19.4337 6.875,-20.0386 v -1.0997 h -22.3895 -22.38949 l 3.327,-9.3689 3.327,-9.369 62.81249,-0.01 62.8125,-0.01 -0.021,0.9375 c -0.013,0.5156 -1.3544,4.5938 -2.9843,9.0625 l -2.9636,8.125 -22.9531,0.625 -22.9533,0.625 -7.3936,20.3125 -7.3935,20.3125 h -17.294 c -9.5111,4e-4 -17.2934,-0.2635 -17.2934,-0.5861 z m 95.5048,-7.2146 c 1.5957,-4.3031 4.7431,-13.027 6.9943,-19.3864 l 4.093,-11.5625 h 63.0581 63.0582 l -0.643,1.5625 c -0.3537,0.8594 -1.6283,4.5156 -2.8325,8.125 l -2.1894,6.5625 h -46.0217 -46.0218 v 1.875 1.875 h 45 45 v 1.0978 c 0,0.6038 -1.3472,4.682 -2.994,9.0625 l -2.994,7.9647 -63.2042,0.3239 -63.2044,0.324 z m 138.7415,0.023 c 1.6005,-4.3156 4.7517,-13.0497 7.0028,-19.409 l 4.093,-11.5625 47.6414,-0.019 47.6415,-0.019 -1.875,-1.2118 -1.875,-1.2117 -45.202,-0.019 -45.202,-0.019 3.327,-9.3689 3.327,-9.369 57.0193,-0.01 57.0192,-0.01 6.4183,5.2211 c 3.53,2.8715 6.4182,5.7685 6.4182,6.4377 0,0.6691 -2.0552,6.7572 -4.567,13.5289 l -4.567,12.3123 h -48.2455 -48.2455 l -3.8617,10.934 -3.8619,10.9339 -17.6575,0.3466 -17.6575,0.3465 2.9099,-7.8465 z m 60.2492,-1.5965 -5.6916,-9.375 h 32.3793 32.3796 l 5.6917,9.375 5.6916,9.375 h -32.3793 -32.3796 z m -2845.1894,-23.7784 c 2.4601,-6.7219 5.5867,-15.456 6.9481,-19.4091 l 2.4753,-7.1875 h 17.4695 17.4695 l -0.701,2.2086 c -0.3855,1.2147 -3.4408,9.7928 -6.7895,19.0625 l -6.0885,16.8539 -17.6281,0.3466 -17.6281,0.3465 z m -333.5122,-17.2042 3.3311,-9.3803 62.8125,-0.01 62.8125,-0.01 -0.021,0.9375 c -0.011,0.5156 -1.3551,4.5938 -2.986,9.0625 l -2.9653,8.125 -63.1575,0.3239 -63.1576,0.3239 3.3311,-9.3803 z m 740.0001,0 3.331,-9.3803 62.8125,-0.01 62.81251,-0.01 -0.0207,0.9375 c -0.0113,0.5156 -1.35511,4.5938 -2.98601,9.0625 l -2.9653,8.125 -63.1575,0.3239 -63.1575,0.3239 3.331,-9.3803 z m 387.50001,0 3.331,-9.3803 62.8125,-0.01 62.8125,-0.01 -0.0213,0.9375 c -0.0125,0.5156 -1.35512,4.5938 -2.986,9.0625 l -2.96525,8.125 -63.15763,0.3239 -63.1575,0.3239 3.33113,-9.3803 z m 138.75,0 3.331,-9.3803 62.8125,-0.01 62.8125,-0.01 -0.0213,0.9375 c -0.0125,0.5156 -1.35512,4.5938 -2.986,9.0625 l -2.96525,8.125 -63.15763,0.3239 -63.1575,0.3239 3.33113,-9.3803 z m 330,0 3.331,-9.3803 62.8125,-0.01 62.8125,-0.01 -0.0213,0.9375 c -0.0125,0.5156 -1.35513,4.5938 -2.986,9.0625 l -2.96525,8.125 -63.15763,0.3239 -63.1575,0.3239 3.33113,-9.3803 z m 976.5,-0.25 3.331,-9.3803 62.8125,-0.01 62.8125,-0.01 -0.021,0.9375 c -0.013,0.5156 -1.3552,4.5938 -2.986,9.0625 l -2.9653,8.125 -63.1576,0.3239 -63.1575,0.3239 3.3311,-9.3803 z m 422.49999,0 3.331,-9.3803 62.8125,-0.01 62.8125,-0.01 -0.021,0.9375 c -0.012,0.5156 -1.3552,4.5938 -2.986,9.0625 l -2.9653,8.125 -63.1576,0.3239 -63.1575,0.3239 3.3311,-9.3803 z m -3268.9651,-47.5799 c 1.2608,-3.2656 15.163,-41.2344 30.8936,-84.375 l 28.6013,-78.4375 h 422.5728 422.5729 l 3.2783,-10 3.2783,-10 h -421.2735 -421.2736 l 0.7352,-2.8125 c 0.4044,-1.5469 19.7795,-54.5601 43.0557,-117.8071 l 42.3205,-114.9945 94.3737,-49.0695 94.3737,-49.0695 498.8546,0.3141 498.85461,0.314 -10.29437,28.125 c -5.66175,15.4688 -19.47725,53.2969 -30.701,84.0625 l -20.40663,55.9375 H -1257.415 l -406.5979,0.5051 c -15.5381,5.8812 -27.3863,10.8225 -46.1656,18.8699 l 420.7115,0.625 420.71151,0.625 -60.56975,166.5625 -60.56985,166.5625 h -576.06091 -576.061 z m 1266.42111,5.0263 c 0,-0.5011 27.091,-75.5948 60.20238,-166.875 l 60.20237,-165.9638 h 153.68313 153.68312 l -0.72787,2.8125 c -0.40038,1.5469 -13.61788,38.5312 -29.37226,82.1875 l -28.64412,79.375 244.0275,0.3156 244.027624,0.3156 27.85113,-9.6906 27.85112,-9.6906 30.18925,-82.5 30.18925,-82.5 -422.290004,-0.3143 -422.28987,-0.3144 0.8805,-2.7743 c 0.48425,-1.5259 14.23237,-39.3532 30.5515,-84.0606 l 29.67087,-81.2864 575.92838,-0.3138 575.9283,-0.3139 -0.5913,2.1889 c -1.4087,5.2146 -151.3695,415.0979 -153.2457,418.8622 l -2.0803,4.1735 -93.7272,48.639 -93.72742,48.6391 h -499.08513 -499.08525 z m 1268.6674,-6.8999 c 1.256,-3.6102 14.5164,-40.0327 29.4676,-80.9389 14.9512,-40.9063 27.7297,-75.9219 28.3967,-77.8125 l 1.2129,-3.4375 h 199.0691 199.0693 l 32.8861,-90.3125 c 18.0873,-49.6719 33.1363,-91.0156 33.4423,-91.875 l 0.5561,-1.5625 h -198.8838 c -109.3861,0 -198.8837,-0.2603 -198.8837,-0.5784 0,-1.242 60.3989,-166.3525 61.1762,-167.2355 l 0.8267,-0.9389 551.40119,0.3139 551.4013,0.3139 -20.5186,56.25 c -11.2853,30.9375 -25.0979,68.7656 -30.6947,84.0625 l -10.1757,27.8125 h -199.0248 -199.0246 l -32.8861,90.3125 c -18.0873,49.6719 -33.1363,91.0156 -33.4423,91.875 l -0.5561,1.5625 h 198.968 198.968 l -0.8811,2.7762 c -0.4847,1.5268 -14.233,39.355 -30.5522,84.0625 l -29.6708,81.2863 -551.96539,0.3139 -551.9652,0.3139 z"
       id="path3351"
       inkscape:connector-curvature="0"
       sodipodi:nodetypes="ccccccccsccccccccccccsccccccccccccssccccccccccccccccccccsccccccccccccccccsccccccccccccccsccssscccscssccccccscccccscscccccccccccccscscccssccccccccccccccccccccccsscccccccccccccccccccccccccccccccccsscccccscccsssscccssccccccccscccccccssccccccccccccsscccscscccscccccccccccsccccsccccccsccccsccccccccccccccccsccccscccccsscccsccccccccsscccscscccsssscccssccccccccsccccccccsccccsccccccsccccscccccccccccccccsccccscccccsscccssccscccccccscsccccscccccccsccccccsccccccccccccsscccccccccccccccccccsscccccccccccccccccssccccscccccccsccccscscccccccccccsssccccccccccccccccccssccccscccscccccsccccccccccsccccccccccsccccccccccsccccccccccscccccccccccccccccccccccccccssccccccccscccccssccccccccccsssccccsccccccccccscccsccccccsssccccsccssccccsscccscccccscccs"
       clip-path="url(#clipPath5100)" />
    <path
       transform="matrix(0.05560195,0,0,0.05560195,115.75394,57.87533)"
       style="fill:#000000"
       d="m -2171.1506,1727.8196 3.3088,-9.386 h 48.5191 48.5192 v -1.875 -1.875 h -47.5 -47.5 v -1.1067 c 0,-0.6088 2.0601,-6.5552 4.5779,-13.2144 l 4.578,-12.1077 11.0221,-5.5356 11.022,-5.5356 h 56.7622 56.7621 l -3.3442,9.0625 -3.5227,8.9732 c -31.3026,0.2807 -59.2666,0.2486 -90.8379,0.3309 -0.9892,0.6085 -3.8427,2.268 -4.9362,2.8834 h 94.1667 l -0.069,0.9375 c -0.038,0.5156 -3.0273,9.0937 -6.6431,19.0625 l -6.5742,18.125 -65.8098,0.3235 -65.8098,0.3235 z m 150.8618,-15.1762 8.9548,-24.5402 10.5777,-5.397 10.5778,-5.397 48.2692,-0.063 48.2692,-0.063 6.4183,5.221 6.4183,5.221 v 1.3226 c 0,0.7275 -3.7969,11.8708 -8.4375,24.763 l -8.4375,23.4404 -65.7826,0.016 -65.7825,0.016 8.9548,-24.5402 z m 97.503,-3.1325 3.3073,-8.9226 -2.1062,-2.3274 -2.1063,-2.3273 h -24.2214 -24.2214 l -4.2001,1.7549 -4.2001,1.7549 -2.4754,6.6826 c -1.3614,3.6754 -2.8662,7.9482 -3.344,9.4951 l -0.8686,2.8125 h 30.5644 30.5644 z m 41.2286,19.8943 c 1.6004,-4.3157 4.7517,-13.0497 7.0028,-19.4091 l 4.093,-11.5625 h 63.0581 63.0582 l -0.643,1.5625 c -0.3536,0.8594 -1.6282,4.5156 -2.8325,8.125 l -2.1894,6.5625 h -45.7093 -45.7092 l -3.8618,10.9339 -3.8618,10.934 -17.6575,0.3465 -17.6575,0.3466 2.9099,-7.8466 z m 182.0037,7.1919 c 0,-0.3225 3.0938,-9.1089 6.875,-19.5253 3.7813,-10.4163 6.875,-19.4336 6.875,-20.0385 v -1.0997 h -22.3895 -22.3894 l 3.3269,-9.3689 3.327,-9.369 62.8125,-0.01 62.8125,-0.01 -0.021,0.9375 c -0.011,0.5156 -1.3543,4.5938 -2.9843,9.0625 l -2.9635,8.125 -22.9532,0.625 -22.9532,0.625 -7.3936,20.3125 -7.3936,20.3125 h -17.2939 c -9.5117,0 -17.2939,-0.2639 -17.2939,-0.5865 z m 103.9183,-4.6345 c -3.5301,-2.8716 -6.4183,-5.7513 -6.4183,-6.3994 0,-0.6482 3.7969,-11.7942 8.4375,-24.769 l 8.4375,-23.5905 17.1875,-0.01 17.1875,-0.01 v 1.0997 c 0,0.6048 -3.0937,9.6222 -6.875,20.0385 -3.7812,10.4164 -6.875,19.2098 -6.875,19.5411 0,0.3312 20.0202,0.4545 44.4893,0.2739 l 44.4893,-0.3282 7.1929,-20 7.1928,-20 17.674,-0.3467 17.6741,-0.3468 -3.5693,9.7218 c -1.9632,5.3469 -5.9832,16.3711 -8.9335,24.4982 l -5.3641,14.7765 -11.0227,5.536 -11.0228,5.536 h -61.7317 -61.7317 z m 165.5671,-6.9324 c 2.4212,-6.7219 5.5716,-15.456 7.0009,-19.4091 l 2.5987,-7.1875 47.645,-0.019 47.645,-0.019 -1.875,-1.2117 -1.875,-1.2117 -45.2475,-0.019 -45.2474,-0.019 1.3279,-3.8093 1.3279,-3.8092 11.0821,-5.5658 11.0821,-5.5657 h 47.8604 47.8603 l 6.2271,5.1248 c 3.4249,2.8186 6.3653,5.7717 6.5342,6.5625 0.169,0.7907 -3.5013,11.8439 -8.1561,24.5627 l -8.4633,23.125 -17.6139,0.3458 -17.6139,0.3458 3.5826,-10.1239 c 1.9704,-5.5682 3.5825,-10.6457 3.5825,-11.2834 v -1.1594 h -30.4138 -30.4138 l -3.7881,10.9375 -3.7882,10.9375 -17.6314,0.3466 -17.6314,0.3466 4.4021,-12.2216 z m 143.5109,4.375 c 1.6004,-4.3157 4.7517,-13.0497 7.0029,-19.4091 l 4.0929,-11.5625 47.6415,-0.019 47.6414,-0.019 -1.875,-1.2117 -1.875,-1.2117 -45.202,-0.019 -45.2019,-0.019 3.3269,-9.369 3.327,-9.3689 57.0192,-0.01 57.0193,-0.01 6.4182,5.221 c 3.5301,2.8716 6.4183,5.7685 6.4183,6.4377 0,0.6692 -2.0551,6.7572 -4.567,13.529 l -4.567,12.3126 h -48.2455 -48.2455 l -3.8618,10.934 -3.8618,10.9339 -17.6575,0.3466 -17.6575,0.3465 2.9099,-7.8465 z m 60.2493,-1.5966 -5.6917,-9.375 h 32.3794 32.3795 l 5.6917,9.375 5.6917,9.375 h -32.3795 -32.3794 z m 84.7592,1.5739 c 1.5958,-4.3031 4.7432,-13.027 6.9944,-19.3864 l 4.0929,-11.5625 h 63.0581 63.0582 l -0.643,1.5625 c -0.3536,0.8594 -1.6282,4.5156 -2.8325,8.125 l -2.1894,6.5625 h -46.0218 -46.0217 v 1.875 1.875 h 45 45 v 1.0978 c 0,0.6038 -1.3473,4.6819 -2.994,9.0625 l -2.994,7.9647 -63.2043,0.3239 -63.2042,0.3239 z m 242.52609,-0.011 c 1.6055,-4.2968 4.79225,-13.0156 7.08187,-19.375 l 4.16288,-11.5625 h 17.23712 17.23725 v 1.1012 c 0,0.6057 -1.40625,4.8372 -3.125,9.4035 -1.71875,4.5663 -3.125,8.5708 -3.125,8.8989 0,0.328 12.291,0.5964 27.3135,0.5964 h 27.3135 l 3.801,-1.325 3.80113,-1.3251 3.26037,-9.1841 c 1.79325,-5.0513 3.2605,-9.5175 3.2605,-9.925 v -0.7408 h -48.0145 -48.0145 l 3.327,-9.3689 3.327,-9.369 65.906,-0.01 65.90613,-0.01 -3.55675,9.6875 c -1.95613,5.3282 -5.9705,16.337 -8.92075,24.4641 l -5.36413,14.7765 -11.02275,5.536 -11.02275,5.5359 h -56.844 -56.844 l 2.91888,-7.8125 z m 144.97387,0.011 c 1.59575,-4.3031 4.74325,-13.027 6.99437,-19.3864 l 4.09301,-11.5625 h 63.05812 63.05813 l -0.64301,1.5625 c -0.35362,0.8594 -1.62824,4.5156 -2.83249,8.125 l -2.18938,6.5625 h -46.02175 -46.02175 v 1.875 1.875 h 45 45 v 1.0978 c 0,0.6038 -1.34725,4.6819 -2.994,9.0625 l -2.994,7.9647 -63.20425,0.3239 -63.20437,0.3239 z m 138.7415,0.023 c 1.6005,-4.3156 4.75175,-13.0497 7.00287,-19.409 l 4.093,-11.5625 h 63.05813 63.05813 l -0.64301,1.5625 c -0.35362,0.8593 -1.62824,4.5156 -2.83249,8.125 l -2.18938,6.5625 h -45.70925 -45.70925 l -3.86175,10.9339 -3.86187,10.9339 -17.65751,0.3466 -17.6575,0.3466 2.90988,-7.8466 z m 139.486,-1.8752 c 1.969,-5.3467 6.85663,-18.8584 10.86138,-30.026 l 7.28137,-20.3047 17.1875,-0.01 17.1875,-0.01 -0.0763,1.5625 c -0.0412,0.8594 -4.72475,14.2187 -10.40712,29.6875 l -10.3315,28.125 -17.64175,0.3463 -17.64175,0.3464 3.58,-9.7214 z m 46.764,1.8752 c 1.6005,-4.3156 4.75175,-13.0497 7.00287,-19.409 l 4.093,-11.5625 h 17.32888 17.329 l -0.0688,0.9375 c -0.0375,0.5156 -3.02663,9.0937 -6.64163,19.0625 l -6.57275,18.125 -17.69012,0.3465 -17.69012,0.3466 2.90987,-7.8466 z m 59.24463,-12.5115 -11.92813,-20.335 -17.53387,-0.3461 -17.53388,-0.3461 3.315,-9.3354 3.315,-9.3353 28.7975,-0.01 28.79738,-0.01 11.7745,19.9905 11.7745,19.9905 0.80462,-0.928 c 0.4425,-0.5104 3.84125,-9.5013 7.553,-19.9796 l 6.7485,-19.0516 17.1875,-0.011 17.1875,-0.011 -0.0762,1.5625 c -0.0412,0.8593 -4.72512,14.2187 -10.408,29.6875 l -10.33237,28.125 -28.75763,0.335 -28.7575,0.335 -11.928,-20.335 z m 84.51387,12.4889 c 1.59575,-4.3032 4.74325,-13.0271 6.99437,-19.3864 l 4.093,-11.5625 h 63.05813 63.05813 l -0.643,1.5625 c -0.35363,0.8593 -1.62825,4.5156 -2.83251,8.125 l -2.18937,6.5625 h -46.02175 -46.02175 v 1.875 1.875 h 45 45 v 1.0978 c 0,0.6038 -1.34725,4.6819 -2.994,9.0625 l -2.994,7.9647 -63.20425,0.3239 -63.20437,0.3239 z m 138.77613,-0.011 c 1.6055,-4.2969 4.79225,-13.0156 7.08187,-19.375 l 4.16288,-11.5625 h 17.23712 17.23725 v 1.1012 c 0,0.6056 -1.40625,4.8372 -3.125,9.4035 -1.71875,4.5663 -3.125,8.5708 -3.125,8.8988 0,0.3281 12.291004,0.5965 27.313504,0.5965 h 27.3135 l 3.801,-1.3251 3.80112,-1.3251 3.26038,-9.1841 c 1.79325,-5.0513 3.2605,-9.5175 3.2605,-9.9249 v -0.7408 h -48.0145 -48.014504 l 3.327,-9.3689 3.327,-9.369 65.906004,-0.01 65.9061298,-0.01 -3.55674997,9.6875 c -1.95613003,5.3281 -5.97050003,16.3369 -8.92075003,24.464 l -5.3641298,14.7766 -11.02275,5.5359 -11.02275,5.536 h -56.844 -56.844004 l 2.91888,-7.8125 z m 512.20142,-2.0912 c 1.969,-5.3467 5.92908,-19.2359 10.8613,-30.026 l 7.2814,-20.3047 17.1875,-0.01 17.1875,-0.01 -0.076,1.5625 c -0.041,0.8594 -5.72652,13.8867 -10.4072,29.6875 l -10.3315,28.125 -17.6417,0.3463 -17.6418,0.3464 3.58,-9.7214 z m 46.764,1.8752 c 1.6005,-4.3156 4.75165,-13.0496 7.0028,-19.409 l 4.093,-11.5625 h 17.3289 17.329 l -0.069,0.9375 c -0.038,0.5156 -3.0266,9.0937 -6.6416,19.0625 l -6.5727,18.125 -17.6901,0.3465 -17.6902,0.3466 z m 59.2446,-12.5115 -11.9281,-20.335 -17.5339,-0.3461 -17.5339,-0.3461 3.315,-9.3353 3.315,-9.3354 28.7975,-0.01 28.7974,-0.01 11.7745,19.9905 11.7745,19.9906 0.8046,-0.9281 c 0.4425,-0.5104 2.91408,-9.8774 7.553,-19.9796 l 6.7485,-19.0516 17.1875,-0.011 17.1875,-0.011 -0.076,1.5625 c -0.041,0.8594 -4.72517,14.2187 -10.408,29.6875 l -10.3324,28.125 -28.7576,0.335 -28.7575,0.335 -11.928,-20.335 z m 117.2879,7.4773 c -11.81544,-33.6921 -15.7788,-45.2969 -15.7788,-46.2025 v -0.985 h 18.0353 18.0351 l 2.3985,6.5625 c 1.31919,3.6094 4.27021,12.0653 6.5578,18.7908 l 4.1593,12.2283 4.4695,-4.175 c 2.4583,-2.2962 11.5836,-10.7675 20.2786,-18.8249 l 15.8093,-14.65 18.1255,0.3467 18.1255,0.3466 -31.9748,29.6875 -31.9747,29.6875 h -20.8865 -20.8864 z m 102.226,5.0115 c 1.5957,-4.3032 4.74315,-13.0271 6.9943,-19.3865 l 4.093,-11.5625 h 63.0581 63.0582 l -0.643,1.5625 c -0.3537,0.8594 -1.62832,4.5156 -2.8325,8.125 l -2.1894,6.5625 h -46.0217 -46.0218 v 1.875 1.875 h 45 45 v 1.0978 c 0,0.6038 -1.3472,4.682 -2.994,9.0625 l -2.994,7.9647 -63.2042,0.324 -63.2044,0.3239 z m 138.7415,0.023 c 1.6005,-4.3157 4.75165,-13.0497 7.0028,-19.4091 l 4.093,-11.5625 47.6414,-0.019 47.6415,-0.019 -1.875,-1.2117 -1.875,-1.2118 -45.202,-0.019 -45.202,-0.019 3.327,-9.3689 3.327,-9.3689 57.0193,-0.01 57.0192,-0.01 6.4183,5.221 c 3.53,2.8716 6.4182,5.7685 6.4182,6.4377 0,0.6691 -2.05513,6.7572 -4.567,13.529 l -4.567,12.3123 h -48.2455 -48.2455 l -3.8617,10.9339 -3.8619,10.9339 -17.6575,0.3466 -17.6575,0.3465 2.9099,-7.8465 z m 60.2492,-1.5966 -5.6916,-9.375 h 32.3793 32.3796 l 5.6917,9.375 5.6916,9.375 h -32.3793 -32.3796 z m 128.00449,8.7885 c 0,-0.3225 3.0938,-9.1089 6.875,-19.5252 3.7813,-10.4164 6.875,-19.4337 6.875,-20.0386 v -1.0997 h -22.3895 -22.38949 l 3.327,-9.3689 3.327,-9.369 62.81249,-0.01 62.8125,-0.01 -0.021,0.9375 c -0.013,0.5156 -1.3544,4.5938 -2.9843,9.0625 l -2.9636,8.125 -22.9531,0.625 -22.9533,0.625 -7.3936,20.3125 -7.3935,20.3125 h -17.294 c -9.5111,4e-4 -17.2934,-0.2635 -17.2934,-0.5861 z m 95.5048,-7.2146 c 1.5957,-4.3031 4.7431,-13.027 6.9943,-19.3864 l 4.093,-11.5625 h 63.0581 63.0582 l -0.643,1.5625 c -0.3537,0.8594 -1.6283,4.5156 -2.8325,8.125 l -2.1894,6.5625 h -46.0217 -46.0218 v 1.875 1.875 h 45 45 v 1.0978 c 0,0.6038 -1.3472,4.682 -2.994,9.0625 l -2.994,7.9647 -63.2042,0.3239 -63.2044,0.324 z m 138.7415,0.023 c 1.6005,-4.3156 4.7517,-13.0497 7.0028,-19.409 l 4.093,-11.5625 47.6414,-0.019 47.6415,-0.019 -1.875,-1.2118 -1.875,-1.2117 -45.202,-0.019 -45.202,-0.019 3.327,-9.3689 3.327,-9.369 57.0193,-0.01 57.0192,-0.01 6.4183,5.2211 c 3.53,2.8715 6.4182,5.7685 6.4182,6.4377 0,0.6691 -2.0552,6.7572 -4.567,13.5289 l -4.567,12.3123 h -48.2455 -48.2455 l -3.8617,10.934 -3.8619,10.9339 -17.6575,0.3466 -17.6575,0.3465 2.9099,-7.8465 z m 60.2492,-1.5965 -5.6916,-9.375 h 32.3793 32.3796 l 5.6917,9.375 5.6916,9.375 h -32.3793 -32.3796 z m -2845.1894,-23.7784 c 2.4601,-6.7219 5.5867,-15.456 6.9481,-19.4091 l 2.4753,-7.1875 h 17.4695 17.4695 l -0.701,2.2086 c -0.3855,1.2147 -3.4408,9.7928 -6.7895,19.0625 l -6.0885,16.8539 -17.6281,0.3466 -17.6281,0.3465 z m -333.5122,-17.2042 3.3311,-9.3803 62.8125,-0.01 62.8125,-0.01 -0.021,0.9375 c -0.011,0.5156 -1.3551,4.5938 -2.986,9.0625 l -2.9653,8.125 -63.1575,0.3239 -63.1576,0.3239 3.3311,-9.3803 z m 740.0001,0 3.331,-9.3803 62.8125,-0.01 62.81251,-0.01 -0.0207,0.9375 c -0.0113,0.5156 -1.35511,4.5938 -2.98601,9.0625 l -2.9653,8.125 -63.1575,0.3239 -63.1575,0.3239 3.331,-9.3803 z m 387.50001,0 3.331,-9.3803 62.8125,-0.01 62.8125,-0.01 -0.0213,0.9375 c -0.0125,0.5156 -1.35512,4.5938 -2.986,9.0625 l -2.96525,8.125 -63.15763,0.3239 -63.1575,0.3239 3.33113,-9.3803 z m 138.75,0 3.331,-9.3803 62.8125,-0.01 62.8125,-0.01 -0.0213,0.9375 c -0.0125,0.5156 -1.35512,4.5938 -2.986,9.0625 l -2.96525,8.125 -63.15763,0.3239 -63.1575,0.3239 3.33113,-9.3803 z m 330,0 3.331,-9.3803 62.8125,-0.01 62.8125,-0.01 -0.0213,0.9375 c -0.0125,0.5156 -1.35513,4.5938 -2.986,9.0625 l -2.96525,8.125 -63.15763,0.3239 -63.1575,0.3239 3.33113,-9.3803 z m 976.5,-0.25 3.331,-9.3803 62.8125,-0.01 62.8125,-0.01 -0.021,0.9375 c -0.013,0.5156 -1.3552,4.5938 -2.986,9.0625 l -2.9653,8.125 -63.1576,0.3239 -63.1575,0.3239 3.3311,-9.3803 z m 422.49999,0 3.331,-9.3803 62.8125,-0.01 62.8125,-0.01 -0.021,0.9375 c -0.012,0.5156 -1.3552,4.5938 -2.986,9.0625 l -2.9653,8.125 -63.1576,0.3239 -63.1575,0.3239 3.3311,-9.3803 z m -3268.9651,-47.5799 c 1.2608,-3.2656 15.163,-41.2344 30.8936,-84.375 l 28.6013,-78.4375 h 422.5728 422.5729 l 3.2783,-10 3.2783,-10 h -421.2735 -421.2736 l 0.7352,-2.8125 c 0.4044,-1.5469 19.7795,-54.5601 43.0557,-117.8071 l 42.3205,-114.9945 94.3737,-49.0695 94.3737,-49.0695 498.8546,0.3141 498.85461,0.314 -10.29437,28.125 c -5.66175,15.4688 -19.47725,53.2969 -30.701,84.0625 l -20.40663,55.9375 H -1257.415 l -406.5979,0.5051 c -15.5381,5.8812 -27.3863,10.8225 -46.1656,18.8699 l 420.7115,0.625 420.71151,0.625 -60.56975,166.5625 -60.56985,166.5625 h -576.06091 -576.061 z m 1266.42111,5.0263 c 0,-0.5011 27.091,-75.5948 60.20238,-166.875 l 60.20237,-165.9638 h 153.68313 153.68312 l -0.72787,2.8125 c -0.40038,1.5469 -13.61788,38.5312 -29.37226,82.1875 l -28.64412,79.375 244.0275,0.3156 244.027624,0.3156 27.85113,-9.6906 27.85112,-9.6906 30.18925,-82.5 30.18925,-82.5 -422.290004,-0.3143 -422.28987,-0.3144 0.8805,-2.7743 c 0.48425,-1.5259 14.23237,-39.3532 30.5515,-84.0606 l 29.67087,-81.2864 575.92838,-0.3138 575.9283,-0.3139 -0.5913,2.1889 c -1.4087,5.2146 -151.3695,415.0979 -153.2457,418.8622 l -2.0803,4.1735 -93.7272,48.639 -93.72742,48.6391 h -499.08513 -499.08525 z m 1268.6674,-6.8999 c 1.256,-3.6102 14.5164,-40.0327 29.4676,-80.9389 14.9512,-40.9063 27.7297,-75.9219 28.3967,-77.8125 l 1.2129,-3.4375 h 199.0691 199.0693 l 32.8861,-90.3125 c 18.0873,-49.6719 33.1363,-91.0156 33.4423,-91.875 l 0.5561,-1.5625 h -198.8838 c -109.3861,0 -198.8837,-0.2603 -198.8837,-0.5784 0,-1.242 60.3989,-166.3525 61.1762,-167.2355 l 0.8267,-0.9389 551.40119,0.3139 551.4013,0.3139 -20.5186,56.25 c -11.2853,30.9375 -25.0979,68.7656 -30.6947,84.0625 l -10.1757,27.8125 h -199.0248 -199.0246 l -32.8861,90.3125 c -18.0873,49.6719 -33.1363,91.0156 -33.4423,91.875 l -0.5561,1.5625 h 198.968 198.968 l -0.8811,2.7762 c -0.4847,1.5268 -14.233,39.355 -30.5522,84.0625 l -29.6708,81.2863 -551.96539,0.3139 -551.9652,0.3139 z"
       id="path3351-1"
       inkscape:connector-curvature="0"
       sodipodi:nodetypes="ccccccccsccccccccccccsccccccccccccssccccccccccccccccccccsccccccccccccccccsccccccccccccccsccssscccscssccccccscccccscscccccccccccccscscccssccccccccccccccccccccccsscccccccccccccccccccccccccccccccccsscccccscccsssscccssccccccccscccccccssccccccccccccsscccscscccscccccccccccsccccsccccccsccccsccccccccccccccccsccccscccccsscccsccccccccsscccscscccsssscccssccccccccsccccccccsccccsccccccsccccscccccccccccccccsccccscccccsscccssccscccccccscsccccscccccccsccccccsccccccccccccsscccccccccccccccccccsscccccccccccccccccssccccscccccccsccccscscccccccccccsssccccccccccccccccccssccccscccscccccsccccccccccsccccccccccsccccccccccsccccccccccscccccccccccccccccccccccccccssccccccccscccccssccccccccccsssccccsccccccccccscccsccccccsssccccsccssccccsscccscccccscccs"
       clip-path="url(#clipPath5125)" />
    <path
       transform="matrix(0.49144499,0,0,0.49144499,371.08679,-703.90622)"
       style="fill:#000000"
       d="m -2171.1506,1727.8196 3.3088,-9.386 h 48.5191 48.5192 v -1.875 -1.875 h -47.5 -47.5 v -1.1067 c 0,-0.6088 2.0601,-6.5552 4.5779,-13.2144 l 4.578,-12.1077 11.0221,-5.5356 11.022,-5.5356 h 56.7622 56.7621 l -3.3442,9.0625 -3.5227,8.9732 c -31.3026,0.2807 -59.2666,0.2486 -90.8379,0.3309 -0.9892,0.6085 -3.8427,2.268 -4.9362,2.8834 h 94.1667 l -0.069,0.9375 c -0.038,0.5156 -3.0273,9.0937 -6.6431,19.0625 l -6.5742,18.125 -65.8098,0.3235 -65.8098,0.3235 z m 150.8618,-15.1762 8.9548,-24.5402 10.5777,-5.397 10.5778,-5.397 48.2692,-0.063 48.2692,-0.063 6.4183,5.221 6.4183,5.221 v 1.3226 c 0,0.7275 -3.7969,11.8708 -8.4375,24.763 l -8.4375,23.4404 -65.7826,0.016 -65.7825,0.016 8.9548,-24.5402 z m 97.503,-3.1325 3.3073,-8.9226 -2.1062,-2.3274 -2.1063,-2.3273 h -24.2214 -24.2214 l -4.2001,1.7549 -4.2001,1.7549 -2.4754,6.6826 c -1.3614,3.6754 -2.8662,7.9482 -3.344,9.4951 l -0.8686,2.8125 h 30.5644 30.5644 z m 41.2286,19.8943 c 1.6004,-4.3157 4.7517,-13.0497 7.0028,-19.4091 l 4.093,-11.5625 h 63.0581 63.0582 l -0.643,1.5625 c -0.3536,0.8594 -1.6282,4.5156 -2.8325,8.125 l -2.1894,6.5625 h -45.7093 -45.7092 l -3.8618,10.9339 -3.8618,10.934 -17.6575,0.3465 -17.6575,0.3466 2.9099,-7.8466 z m 182.0037,7.1919 c 0,-0.3225 3.0938,-9.1089 6.875,-19.5253 3.7813,-10.4163 6.875,-19.4336 6.875,-20.0385 v -1.0997 h -22.3895 -22.3894 l 3.3269,-9.3689 3.327,-9.369 62.8125,-0.01 62.8125,-0.01 -0.021,0.9375 c -0.011,0.5156 -1.3543,4.5938 -2.9843,9.0625 l -2.9635,8.125 -22.9532,0.625 -22.9532,0.625 -7.3936,20.3125 -7.3936,20.3125 h -17.2939 c -9.5117,0 -17.2939,-0.2639 -17.2939,-0.5865 z m 103.9183,-4.6345 c -3.5301,-2.8716 -6.4183,-5.7513 -6.4183,-6.3994 0,-0.6482 3.7969,-11.7942 8.4375,-24.769 l 8.4375,-23.5905 17.1875,-0.01 17.1875,-0.01 v 1.0997 c 0,0.6048 -3.0937,9.6222 -6.875,20.0385 -3.7812,10.4164 -6.875,19.2098 -6.875,19.5411 0,0.3312 20.0202,0.4545 44.4893,0.2739 l 44.4893,-0.3282 7.1929,-20 7.1928,-20 17.674,-0.3467 17.6741,-0.3468 -3.5693,9.7218 c -1.9632,5.3469 -5.9832,16.3711 -8.9335,24.4982 l -5.3641,14.7765 -11.0227,5.536 -11.0228,5.536 h -61.7317 -61.7317 z m 165.5671,-6.9324 c 2.4212,-6.7219 5.5716,-15.456 7.0009,-19.4091 l 2.5987,-7.1875 47.645,-0.019 47.645,-0.019 -1.875,-1.2117 -1.875,-1.2117 -45.2475,-0.019 -45.2474,-0.019 1.3279,-3.8093 1.3279,-3.8092 11.0821,-5.5658 11.0821,-5.5657 h 47.8604 47.8603 l 6.2271,5.1248 c 3.4249,2.8186 6.3653,5.7717 6.5342,6.5625 0.169,0.7907 -3.5013,11.8439 -8.1561,24.5627 l -8.4633,23.125 -17.6139,0.3458 -17.6139,0.3458 3.5826,-10.1239 c 1.9704,-5.5682 3.5825,-10.6457 3.5825,-11.2834 v -1.1594 h -30.4138 -30.4138 l -3.7881,10.9375 -3.7882,10.9375 -17.6314,0.3466 -17.6314,0.3466 4.4021,-12.2216 z m 143.5109,4.375 c 1.6004,-4.3157 4.7517,-13.0497 7.0029,-19.4091 l 4.0929,-11.5625 47.6415,-0.019 47.6414,-0.019 -1.875,-1.2117 -1.875,-1.2117 -45.202,-0.019 -45.2019,-0.019 3.3269,-9.369 3.327,-9.3689 57.0192,-0.01 57.0193,-0.01 6.4182,5.221 c 3.5301,2.8716 6.4183,5.7685 6.4183,6.4377 0,0.6692 -2.0551,6.7572 -4.567,13.529 l -4.567,12.3126 h -48.2455 -48.2455 l -3.8618,10.934 -3.8618,10.9339 -17.6575,0.3466 -17.6575,0.3465 2.9099,-7.8465 z m 60.2493,-1.5966 -5.6917,-9.375 h 32.3794 32.3795 l 5.6917,9.375 5.6917,9.375 h -32.3795 -32.3794 z m 84.7592,1.5739 c 1.5958,-4.3031 4.7432,-13.027 6.9944,-19.3864 l 4.0929,-11.5625 h 63.0581 63.0582 l -0.643,1.5625 c -0.3536,0.8594 -1.6282,4.5156 -2.8325,8.125 l -2.1894,6.5625 h -46.0218 -46.0217 v 1.875 1.875 h 45 45 v 1.0978 c 0,0.6038 -1.3473,4.6819 -2.994,9.0625 l -2.994,7.9647 -63.2043,0.3239 -63.2042,0.3239 z m 242.52609,-0.011 c 1.6055,-4.2968 4.79225,-13.0156 7.08187,-19.375 l 4.16288,-11.5625 h 17.23712 17.23725 v 1.1012 c 0,0.6057 -1.40625,4.8372 -3.125,9.4035 -1.71875,4.5663 -3.125,8.5708 -3.125,8.8989 0,0.328 12.291,0.5964 27.3135,0.5964 h 27.3135 l 3.801,-1.325 3.80113,-1.3251 3.26037,-9.1841 c 1.79325,-5.0513 3.2605,-9.5175 3.2605,-9.925 v -0.7408 h -48.0145 -48.0145 l 3.327,-9.3689 3.327,-9.369 65.906,-0.01 65.90613,-0.01 -3.55675,9.6875 c -1.95613,5.3282 -5.9705,16.337 -8.92075,24.4641 l -5.36413,14.7765 -11.02275,5.536 -11.02275,5.5359 h -56.844 -56.844 l 2.91888,-7.8125 z m 144.97387,0.011 c 1.59575,-4.3031 4.74325,-13.027 6.99437,-19.3864 l 4.09301,-11.5625 h 63.05812 63.05813 l -0.64301,1.5625 c -0.35362,0.8594 -1.62824,4.5156 -2.83249,8.125 l -2.18938,6.5625 h -46.02175 -46.02175 v 1.875 1.875 h 45 45 v 1.0978 c 0,0.6038 -1.34725,4.6819 -2.994,9.0625 l -2.994,7.9647 -63.20425,0.3239 -63.20437,0.3239 z m 138.7415,0.023 c 1.6005,-4.3156 4.75175,-13.0497 7.00287,-19.409 l 4.093,-11.5625 h 63.05813 63.05813 l -0.64301,1.5625 c -0.35362,0.8593 -1.62824,4.5156 -2.83249,8.125 l -2.18938,6.5625 h -45.70925 -45.70925 l -3.86175,10.9339 -3.86187,10.9339 -17.65751,0.3466 -17.6575,0.3466 2.90988,-7.8466 z m 139.486,-1.8752 c 1.969,-5.3467 6.85663,-18.8584 10.86138,-30.026 l 7.28137,-20.3047 17.1875,-0.01 17.1875,-0.01 -0.0763,1.5625 c -0.0412,0.8594 -4.72475,14.2187 -10.40712,29.6875 l -10.3315,28.125 -17.64175,0.3463 -17.64175,0.3464 3.58,-9.7214 z m 46.764,1.8752 c 1.6005,-4.3156 4.75175,-13.0497 7.00287,-19.409 l 4.093,-11.5625 h 17.32888 17.329 l -0.0688,0.9375 c -0.0375,0.5156 -3.02663,9.0937 -6.64163,19.0625 l -6.57275,18.125 -17.69012,0.3465 -17.69012,0.3466 2.90987,-7.8466 z m 59.24463,-12.5115 -11.92813,-20.335 -17.53387,-0.3461 -17.53388,-0.3461 3.315,-9.3354 3.315,-9.3353 28.7975,-0.01 28.79738,-0.01 11.7745,19.9905 11.7745,19.9905 0.80462,-0.928 c 0.4425,-0.5104 3.84125,-9.5013 7.553,-19.9796 l 6.7485,-19.0516 17.1875,-0.011 17.1875,-0.011 -0.0762,1.5625 c -0.0412,0.8593 -4.72512,14.2187 -10.408,29.6875 l -10.33237,28.125 -28.75763,0.335 -28.7575,0.335 -11.928,-20.335 z m 84.51387,12.4889 c 1.59575,-4.3032 4.74325,-13.0271 6.99437,-19.3864 l 4.093,-11.5625 h 63.05813 63.05813 l -0.643,1.5625 c -0.35363,0.8593 -1.62825,4.5156 -2.83251,8.125 l -2.18937,6.5625 h -46.02175 -46.02175 v 1.875 1.875 h 45 45 v 1.0978 c 0,0.6038 -1.34725,4.6819 -2.994,9.0625 l -2.994,7.9647 -63.20425,0.3239 -63.20437,0.3239 z m 138.77613,-0.011 c 1.6055,-4.2969 4.79225,-13.0156 7.08187,-19.375 l 4.16288,-11.5625 h 17.23712 17.23725 v 1.1012 c 0,0.6056 -1.40625,4.8372 -3.125,9.4035 -1.71875,4.5663 -3.125,8.5708 -3.125,8.8988 0,0.3281 12.291004,0.5965 27.313504,0.5965 h 27.3135 l 3.801,-1.3251 3.80112,-1.3251 3.26038,-9.1841 c 1.79325,-5.0513 3.2605,-9.5175 3.2605,-9.9249 v -0.7408 h -48.0145 -48.014504 l 3.327,-9.3689 3.327,-9.369 65.906004,-0.01 65.9061298,-0.01 -3.55674997,9.6875 c -1.95613003,5.3281 -5.97050003,16.3369 -8.92075003,24.464 l -5.3641298,14.7766 -11.02275,5.5359 -11.02275,5.536 h -56.844 -56.844004 l 2.91888,-7.8125 z m 512.20142,-2.0912 c 1.969,-5.3467 5.92908,-19.2359 10.8613,-30.026 l 7.2814,-20.3047 17.1875,-0.01 17.1875,-0.01 -0.076,1.5625 c -0.041,0.8594 -5.72652,13.8867 -10.4072,29.6875 l -10.3315,28.125 -17.6417,0.3463 -17.6418,0.3464 3.58,-9.7214 z m 46.764,1.8752 c 1.6005,-4.3156 4.75165,-13.0496 7.0028,-19.409 l 4.093,-11.5625 h 17.3289 17.329 l -0.069,0.9375 c -0.038,0.5156 -3.0266,9.0937 -6.6416,19.0625 l -6.5727,18.125 -17.6901,0.3465 -17.6902,0.3466 z m 59.2446,-12.5115 -11.9281,-20.335 -17.5339,-0.3461 -17.5339,-0.3461 3.315,-9.3353 3.315,-9.3354 28.7975,-0.01 28.7974,-0.01 11.7745,19.9905 11.7745,19.9906 0.8046,-0.9281 c 0.4425,-0.5104 2.91408,-9.8774 7.553,-19.9796 l 6.7485,-19.0516 17.1875,-0.011 17.1875,-0.011 -0.076,1.5625 c -0.041,0.8594 -4.72517,14.2187 -10.408,29.6875 l -10.3324,28.125 -28.7576,0.335 -28.7575,0.335 -11.928,-20.335 z m 117.2879,7.4773 c -11.81544,-33.6921 -15.7788,-45.2969 -15.7788,-46.2025 v -0.985 h 18.0353 18.0351 l 2.3985,6.5625 c 1.31919,3.6094 4.27021,12.0653 6.5578,18.7908 l 4.1593,12.2283 4.4695,-4.175 c 2.4583,-2.2962 11.5836,-10.7675 20.2786,-18.8249 l 15.8093,-14.65 18.1255,0.3467 18.1255,0.3466 -31.9748,29.6875 -31.9747,29.6875 h -20.8865 -20.8864 z m 102.226,5.0115 c 1.5957,-4.3032 4.74315,-13.0271 6.9943,-19.3865 l 4.093,-11.5625 h 63.0581 63.0582 l -0.643,1.5625 c -0.3537,0.8594 -1.62832,4.5156 -2.8325,8.125 l -2.1894,6.5625 h -46.0217 -46.0218 v 1.875 1.875 h 45 45 v 1.0978 c 0,0.6038 -1.3472,4.682 -2.994,9.0625 l -2.994,7.9647 -63.2042,0.324 -63.2044,0.3239 z m 138.7415,0.023 c 1.6005,-4.3157 4.75165,-13.0497 7.0028,-19.4091 l 4.093,-11.5625 47.6414,-0.019 47.6415,-0.019 -1.875,-1.2117 -1.875,-1.2118 -45.202,-0.019 -45.202,-0.019 3.327,-9.3689 3.327,-9.3689 57.0193,-0.01 57.0192,-0.01 6.4183,5.221 c 3.53,2.8716 6.4182,5.7685 6.4182,6.4377 0,0.6691 -2.05513,6.7572 -4.567,13.529 l -4.567,12.3123 h -48.2455 -48.2455 l -3.8617,10.9339 -3.8619,10.9339 -17.6575,0.3466 -17.6575,0.3465 2.9099,-7.8465 z m 60.2492,-1.5966 -5.6916,-9.375 h 32.3793 32.3796 l 5.6917,9.375 5.6916,9.375 h -32.3793 -32.3796 z m 128.00449,8.7885 c 0,-0.3225 3.0938,-9.1089 6.875,-19.5252 3.7813,-10.4164 6.875,-19.4337 6.875,-20.0386 v -1.0997 h -22.3895 -22.38949 l 3.327,-9.3689 3.327,-9.369 62.81249,-0.01 62.8125,-0.01 -0.021,0.9375 c -0.013,0.5156 -1.3544,4.5938 -2.9843,9.0625 l -2.9636,8.125 -22.9531,0.625 -22.9533,0.625 -7.3936,20.3125 -7.3935,20.3125 h -17.294 c -9.5111,4e-4 -17.2934,-0.2635 -17.2934,-0.5861 z m 95.5048,-7.2146 c 1.5957,-4.3031 4.7431,-13.027 6.9943,-19.3864 l 4.093,-11.5625 h 63.0581 63.0582 l -0.643,1.5625 c -0.3537,0.8594 -1.6283,4.5156 -2.8325,8.125 l -2.1894,6.5625 h -46.0217 -46.0218 v 1.875 1.875 h 45 45 v 1.0978 c 0,0.6038 -1.3472,4.682 -2.994,9.0625 l -2.994,7.9647 -63.2042,0.3239 -63.2044,0.324 z m 138.7415,0.023 c 1.6005,-4.3156 4.7517,-13.0497 7.0028,-19.409 l 4.093,-11.5625 47.6414,-0.019 47.6415,-0.019 -1.875,-1.2118 -1.875,-1.2117 -45.202,-0.019 -45.202,-0.019 3.327,-9.3689 3.327,-9.369 57.0193,-0.01 57.0192,-0.01 6.4183,5.2211 c 3.53,2.8715 6.4182,5.7685 6.4182,6.4377 0,0.6691 -2.0552,6.7572 -4.567,13.5289 l -4.567,12.3123 h -48.2455 -48.2455 l -3.8617,10.934 -3.8619,10.9339 -17.6575,0.3466 -17.6575,0.3465 2.9099,-7.8465 z m 60.2492,-1.5965 -5.6916,-9.375 h 32.3793 32.3796 l 5.6917,9.375 5.6916,9.375 h -32.3793 -32.3796 z m -2845.1894,-23.7784 c 2.4601,-6.7219 5.5867,-15.456 6.9481,-19.4091 l 2.4753,-7.1875 h 17.4695 17.4695 l -0.701,2.2086 c -0.3855,1.2147 -3.4408,9.7928 -6.7895,19.0625 l -6.0885,16.8539 -17.6281,0.3466 -17.6281,0.3465 z m -333.5122,-17.2042 3.3311,-9.3803 62.8125,-0.01 62.8125,-0.01 -0.021,0.9375 c -0.011,0.5156 -1.3551,4.5938 -2.986,9.0625 l -2.9653,8.125 -63.1575,0.3239 -63.1576,0.3239 3.3311,-9.3803 z m 740.0001,0 3.331,-9.3803 62.8125,-0.01 62.81251,-0.01 -0.0207,0.9375 c -0.0113,0.5156 -1.35511,4.5938 -2.98601,9.0625 l -2.9653,8.125 -63.1575,0.3239 -63.1575,0.3239 3.331,-9.3803 z m 387.50001,0 3.331,-9.3803 62.8125,-0.01 62.8125,-0.01 -0.0213,0.9375 c -0.0125,0.5156 -1.35512,4.5938 -2.986,9.0625 l -2.96525,8.125 -63.15763,0.3239 -63.1575,0.3239 3.33113,-9.3803 z m 138.75,0 3.331,-9.3803 62.8125,-0.01 62.8125,-0.01 -0.0213,0.9375 c -0.0125,0.5156 -1.35512,4.5938 -2.986,9.0625 l -2.96525,8.125 -63.15763,0.3239 -63.1575,0.3239 3.33113,-9.3803 z m 330,0 3.331,-9.3803 62.8125,-0.01 62.8125,-0.01 -0.0213,0.9375 c -0.0125,0.5156 -1.35513,4.5938 -2.986,9.0625 l -2.96525,8.125 -63.15763,0.3239 -63.1575,0.3239 3.33113,-9.3803 z m 976.5,-0.25 3.331,-9.3803 62.8125,-0.01 62.8125,-0.01 -0.021,0.9375 c -0.013,0.5156 -1.3552,4.5938 -2.986,9.0625 l -2.9653,8.125 -63.1576,0.3239 -63.1575,0.3239 3.3311,-9.3803 z m 422.49999,0 3.331,-9.3803 62.8125,-0.01 62.8125,-0.01 -0.021,0.9375 c -0.012,0.5156 -1.3552,4.5938 -2.986,9.0625 l -2.9653,8.125 -63.1576,0.3239 -63.1575,0.3239 3.3311,-9.3803 z m -3268.9651,-47.5799 c 1.2608,-3.2656 15.163,-41.2344 30.8936,-84.375 l 28.6013,-78.4375 h 422.5728 422.5729 l 3.2783,-10 3.2783,-10 h -421.2735 -421.2736 l 0.7352,-2.8125 c 0.4044,-1.5469 19.7795,-54.5601 43.0557,-117.8071 l 42.3205,-114.9945 94.3737,-49.0695 94.3737,-49.0695 498.8546,0.3141 498.85461,0.314 -10.29437,28.125 c -5.66175,15.4688 -19.47725,53.2969 -30.701,84.0625 l -20.40663,55.9375 H -1257.415 l -406.5979,0.5051 c -15.5381,5.8812 -27.3863,10.8225 -46.1656,18.8699 l 420.7115,0.625 420.71151,0.625 -60.56975,166.5625 -60.56985,166.5625 h -576.06091 -576.061 z m 1266.42111,5.0263 c 0,-0.5011 27.091,-75.5948 60.20238,-166.875 l 60.20237,-165.9638 h 153.68313 153.68312 l -0.72787,2.8125 c -0.40038,1.5469 -13.61788,38.5312 -29.37226,82.1875 l -28.64412,79.375 244.0275,0.3156 244.027624,0.3156 27.85113,-9.6906 27.85112,-9.6906 30.18925,-82.5 30.18925,-82.5 -422.290004,-0.3143 -422.28987,-0.3144 0.8805,-2.7743 c 0.48425,-1.5259 14.23237,-39.3532 30.5515,-84.0606 l 29.67087,-81.2864 575.92838,-0.3138 575.9283,-0.3139 -0.5913,2.1889 c -1.4087,5.2146 -151.3695,415.0979 -153.2457,418.8622 l -2.0803,4.1735 -93.7272,48.639 -93.72742,48.6391 h -499.08513 -499.08525 z m 1268.6674,-6.8999 c 1.256,-3.6102 14.5164,-40.0327 29.4676,-80.9389 14.9512,-40.9063 27.7297,-75.9219 28.3967,-77.8125 l 1.2129,-3.4375 h 199.0691 199.0693 l 32.8861,-90.3125 c 18.0873,-49.6719 33.1363,-91.0156 33.4423,-91.875 l 0.5561,-1.5625 h -198.8838 c -109.3861,0 -198.8837,-0.2603 -198.8837,-0.5784 0,-1.242 60.3989,-166.3525 61.1762,-167.2355 l 0.8267,-0.9389 551.40119,0.3139 551.4013,0.3139 -20.5186,56.25 c -11.2853,30.9375 -25.0979,68.7656 -30.6947,84.0625 l -10.1757,27.8125 h -199.0248 -199.0246 l -32.8861,90.3125 c -18.0873,49.6719 -33.1363,91.0156 -33.4423,91.875 l -0.5561,1.5625 h 198.968 198.968 l -0.8811,2.7762 c -0.4847,1.5268 -14.233,39.355 -30.5522,84.0625 l -29.6708,81.2863 -551.96539,0.3139 -551.9652,0.3139 z"
       id="path3351-3"
       inkscape:connector-curvature="0"
       sodipodi:nodetypes="ccccccccsccccccccccccsccccccccccccssccccccccccccccccccccsccccccccccccccccsccccccccccccccsccssscccscssccccccscccccscscccccccccccccscscccssccccccccccccccccccccccsscccccccccccccccccccccccccccccccccsscccccscccsssscccssccccccccscccccccssccccccccccccsscccscscccscccccccccccsccccsccccccsccccsccccccccccccccccsccccscccccsscccsccccccccsscccscscccsssscccssccccccccsccccccccsccccsccccccsccccscccccccccccccccsccccscccccsscccssccscccccccscsccccscccccccsccccccsccccccccccccsscccccccccccccccccccsscccccccccccccccccssccccscccccccsccccscscccccccccccsssccccccccccccccccccssccccscccscccccsccccccccccsccccccccccsccccccccccsccccccccccscccccccccccccccccccccccccccssccccccccscccccssccccccccccsssccccsccccccccccscccsccccccsssccccsccssccccsscccscccccscccs"
       clip-path="url(#clipPath5150)" />
    <flowRoot
       xml:space="preserve"
       id="flowRoot5186"
       style="font-style:normal;font-weight:normal;font-size:26.66666603px;line-height:1.25;font-family:sans-serif;letter-spacing:0px;word-spacing:0px;fill:#000000;fill-opacity:1;stroke:none"
       transform="matrix(0.26458333,0,0,0.26458333,-4.8313794,110.85414)"><flowRegion
         id="flowRegion5188"><rect
           id="rect5190"
           width="180.15718"
           height="31.750132"
           x="13.414254"
           y="140.08337" /></flowRegion><flowPara
         id="flowPara5192"
         style="font-style:normal;font-variant:normal;font-weight:normal;font-stretch:normal;font-family:monospace;-inkscape-font-specification:monospace">electronics</flowPara></flowRoot>    <flowRoot
       xml:space="preserve"
       id="flowRoot5194"
       style="font-style:normal;font-weight:normal;font-size:26.66666603px;line-height:1.25;font-family:sans-serif;letter-spacing:0px;word-spacing:0px;fill:#000000;fill-opacity:1;stroke:none"
       transform="matrix(0.26458333,0,0,0.26458333,-5.6037701,111.38331)"><flowRegion
         id="flowRegion5196"><rect
           id="rect5198"
           width="228.43677"
           height="36.321526"
           x="273.70609"
           y="136.22629" /></flowRegion><flowPara
         id="flowPara5200"
         style="font-style:normal;font-variant:normal;font-weight:normal;font-stretch:normal;font-family:monospace;-inkscape-font-specification:monospace">depot</flowPara></flowRoot>    <flowRoot
       xml:space="preserve"
       id="flowRoot5202"
       style="font-style:normal;font-weight:normal;font-size:26.66666603px;line-height:1.25;font-family:sans-serif;letter-spacing:0px;word-spacing:0px;fill:#000000;fill-opacity:1;stroke:none"
       transform="matrix(0.26458333,0,0,0.26458333,-5.6037701,110.85414)"><flowRegion
         id="flowRegion5204"><rect
           id="rect5206"
           width="253.43498"
           height="35.471542"
           x="531.565"
           y="138.50484" /></flowRegion><flowPara
         id="flowPara5208"
         style="font-style:normal;font-variant:normal;font-weight:normal;font-stretch:normal;font-family:monospace;-inkscape-font-specification:monospace">system</flowPara></flowRoot>    <text
       xml:space="preserve"
       style="font-style:normal;font-weight:normal;font-size:7.05555534px;line-height:1.25;font-family:sans-serif;letter-spacing:0px;word-spacing:0px;fill:#000000;fill-opacity:1;stroke:none;stroke-width:0.26458332"
       x="71.925507"
       y="154.46571"
       id="text5212"><tspan
         sodipodi:role="line"
         id="tspan5210"
         x="71.925507"
         y="160.90271"
         style="stroke-width:0.26458332"></tspan></text>
    <text
       xml:space="preserve"
       style="font-style:normal;font-weight:normal;font-size:7.05555534px;line-height:1.25;font-family:sans-serif;letter-spacing:0px;word-spacing:0px;fill:#000000;fill-opacity:1;stroke:none;stroke-width:0.26458332"
       x="145.84183"
       y="154.41707"
       id="text5216"><tspan
         sodipodi:role="line"
         id="tspan5214"
         x="145.84183"
         y="160.85406"
         style="stroke-width:0.26458332"></tspan></text>
  </g>
</svg>
